<?xml version="1.0" encoding="UTF-8"?>
<svg width="37px" height="34px" viewBox="0 0 37 34" version="1.1" xmlns="http://www.w3.org/2000/svg" xmlns:xlink="http://www.w3.org/1999/xlink">
    <!-- Generator: Sketch 52.5 (67469) - http://www.bohemiancoding.com/sketch -->
    <title>分组 8</title>
    <desc>Created with Sketch.</desc>
    <g id="页面-2" stroke="none" stroke-width="1" fill="none" fill-rule="evenodd">
        <g id="分组-8" fill="#BFCBD9">
            <path d="M1.18121022,7.57920022 L17.6812102,0.175285418 C18.2020535,-0.0584284728 18.7979465,-0.0584284728 19.3187898,0.175285418 L35.8187898,7.57920022 C36.5375372,7.90171809 37,8.61612314 37,9.4039148 L37,10.7451568 C37,11.5679645 36.4960775,12.3068113 35.7300445,12.6071544 L19.2300445,19.076408 C18.7607395,19.2604112 18.2392605,19.2604112 17.7699555,19.076408 L1.26995548,12.6071544 C0.503922476,12.3068113 -4.80182481e-14,11.5679645 -4.88498131e-14,10.7451568 L-4.92939023e-14,9.4039148 C-4.93903789e-14,8.61612314 0.462462766,7.90171809 1.18121022,7.57920022 Z" id="矩形"></path>
            <path d="M36.9727682,16 C36.9907276,16.1077028 37,16.2177813 37,16.3293312 L37,17.6705732 C37,18.4933809 36.4960775,19.2322276 35.7300445,19.5325707 L19.2300445,26.0018243 C18.7607395,26.1858276 18.2392605,26.1858276 17.7699555,26.0018243 L1.26995548,19.5325707 C0.503922476,19.2322276 5.85631622e-14,18.4933809 5.77315973e-14,17.6705732 L5.72875081e-14,16.3293312 C5.72738472e-14,16.2177813 0.00927239983,16.1077028 0.0272318496,16 C0.14158487,16.6858211 0.607868667,17.2729824 1.26995548,17.5325707 L17.7699555,24.0018243 C18.2392605,24.1858276 18.7607395,24.1858276 19.2300445,24.0018243 L35.7300445,17.5325707 C36.3921313,17.2729824 36.8584151,16.6858211 36.9727682,16 Z" id="合并形状"></path>
            <path d="M36.9727682,23 C36.9907276,23.1077028 37,23.2177813 37,23.3293312 L37,24.6705732 C37,25.4933809 36.4960775,26.2322276 35.7300445,26.5325707 L19.2300445,33.0018243 C18.7607395,33.1858276 18.2392605,33.1858276 17.7699555,33.0018243 L1.26995548,26.5325707 C0.503922476,26.2322276 5.85631622e-14,25.4933809 5.77315973e-14,24.6705732 L5.72875081e-14,23.3293312 C5.72738472e-14,23.2177813 0.00927239983,23.1077028 0.0272318496,23 C0.14158487,23.6858211 0.607868667,24.2729824 1.26995548,24.5325707 L17.7699555,31.0018243 C18.2392605,31.1858276 18.7607395,31.1858276 19.2300445,31.0018243 L35.7300445,24.5325707 C36.3921313,24.2729824 36.8584151,23.6858211 36.9727682,23 Z" id="合并形状-copy-4"></path>
        </g>
    </g>
</svg>