<?xml version="1.0" encoding="UTF-8"?>
<svg width="33px" height="39px" viewBox="0 0 33 39" version="1.1" xmlns="http://www.w3.org/2000/svg" xmlns:xlink="http://www.w3.org/1999/xlink">
    <!-- Generator: Sketch 52.5 (67469) - http://www.bohemiancoding.com/sketch -->
    <title>分组 2</title>
    <desc>Created with Sketch.</desc>
    <g id="页面-2" stroke="none" stroke-width="1" fill="none" fill-rule="evenodd">
        <g id="分组-2" fill="#BFCBD9">
            <path d="M8,3 L8,5 C8,6.1045695 8.8954305,7 10,7 L24,7 C25.1045695,7 26,6.1045695 26,5 L26,3 L29,3 C31.209139,3 33,4.790861 33,7 L33,35 C33,37.209139 31.209139,39 29,39 L4,39 C1.790861,39 2.705415e-16,37.209139 0,35 L0,7 C-2.705415e-16,4.790861 1.790861,3 4,3 L8,3 Z M6.5,13 C5.67157288,13 5,13.6715729 5,14.5 C5,15.3284271 5.67157288,16 6.5,16 L20.5,16 C21.3284271,16 22,15.3284271 22,14.5 C22,13.6715729 21.3284271,13 20.5,13 L6.5,13 Z M6.5,21 C5.67157288,21 5,21.6715729 5,22.5 C5,23.3284271 5.67157288,24 6.5,24 L26.5,24 C27.3284271,24 28,23.3284271 28,22.5 C28,21.6715729 27.3284271,21 26.5,21 L6.5,21 Z M6.5,29 C5.67157288,29 5,29.6715729 5,30.5 C5,31.3284271 5.67157288,32 6.5,32 L26.5,32 C27.3284271,32 28,31.3284271 28,30.5 C28,29.6715729 27.3284271,29 26.5,29 L6.5,29 Z" id="合并形状"></path>
            <rect id="矩形-copy-19" x="9" y="0" width="16" height="6" rx="1"></rect>
        </g>
    </g>
</svg>