<?xml version="1.0" encoding="UTF-8"?>
<svg width="40px" height="38px" viewBox="0 0 40 38" version="1.1" xmlns="http://www.w3.org/2000/svg" xmlns:xlink="http://www.w3.org/1999/xlink">
    <!-- Generator: Sketch 52.5 (67469) - http://www.bohemiancoding.com/sketch -->
    <title>分组</title>
    <desc>Created with Sketch.</desc>
    <g id="页面-2" stroke="none" stroke-width="1" fill="none" fill-rule="evenodd">
        <g id="分组" transform="translate(2.000000, 0.000000)">
            <path d="M10,0 L18.1862676,0 L26,0 C28.209139,-4.05812251e-16 30,1.790861 30,4 L30,37 L6,37 L6,4 C6,1.790861 7.790861,4.05812251e-16 10,0 Z M10,5 L10,11 L16,11 L16,5 L10,5 Z M10,14 L10,20 L16,20 L16,14 L10,14 Z M10,23 L10,32 L16,32 L16,23 L10,23 Z M20,5 L20,11 L26,11 L26,5 L20,5 Z M20,14 L20,20 L26,20 L26,14 L20,14 Z M20,23 L20,29 L26,29 L26,23 L20,23 Z" id="合并形状" fill="#BFCBD9"></path>
            <path d="M0.2282986,36.4142223 L36,36.4142223" id="直线" stroke="#BFCBD9" stroke-width="3" stroke-linecap="square"></path>
        </g>
    </g>
</svg>