<?xml version="1.0" encoding="UTF-8"?>
<svg width="36px" height="39px" viewBox="0 0 36 39" version="1.1" xmlns="http://www.w3.org/2000/svg" xmlns:xlink="http://www.w3.org/1999/xlink">
    <!-- Generator: Sketch 52.5 (67469) - http://www.bohemiancoding.com/sketch -->
    <title>路径</title>
    <desc>Created with Sketch.</desc>
    <g id="页面-2" stroke="none" stroke-width="1" fill="none" fill-rule="evenodd">
        <path d="M35.7156601,36.9730962 C34.8558131,38.8543394 32.5604588,39 31.8767105,39 L3.7215795,39 C3.23821919,38.9716085 1.27927401,38.7555865 0.390279662,37.0545673 C0.0150074602,36.3373742 -0.280109514,35.1362917 0.443716481,33.4932899 C1.76263432,30.5072482 4.81824875,30.2171615 5.54814712,30.1912388 C10.7497356,29.372824 12.4390677,27.5533013 12.4548559,27.5360195 L12.5763032,27.4076407 C13.1313174,26.8756093 13.3207753,25.9411597 13.3705687,25.1289169 C10.006478,22.5280116 7.87872108,17.5051909 7.87872108,11.9849022 C7.87872108,3.13787428 13.2782687,0 17.9029824,0 C22.5289106,0 27.9296727,3.13910869 27.9296727,11.9849022 C27.9296727,17.5051909 25.8043447,22.5267772 22.4402541,25.1276825 C22.4924765,25.9423941 22.6819343,26.8793125 23.2320906,27.4076407 L23.3838997,27.5730518 C23.3875432,27.5730518 25.0853766,29.378996 30.2614612,30.1924733 C31.4528593,30.2406153 33.6899189,30.8997911 35.1424287,33.121732 C36.2767467,34.8573147 36.080002,36.1756663 35.7144456,36.9730962 L35.7156601,36.9730962 Z" id="路径" fill="#BFCBD9" fill-rule="nonzero"></path>
    </g>
</svg>