<?xml version="1.0" encoding="UTF-8"?>
<svg width="37px" height="36px" viewBox="0 0 37 36" version="1.1" xmlns="http://www.w3.org/2000/svg" xmlns:xlink="http://www.w3.org/1999/xlink">
    <!-- Generator: Sketch 52.5 (67469) - http://www.bohemiancoding.com/sketch -->
    <title>分组 3</title>
    <desc>Created with Sketch.</desc>
    <g id="页面-2" stroke="none" stroke-width="1" fill="none" fill-rule="evenodd">
        <g id="分组-3" fill="#BFCBD9">
            <path d="M4,7 L26,7 C28.209139,7 30,8.790861 30,11 L30,32 C30,34.209139 28.209139,36 26,36 L4,36 C1.790861,36 2.705415e-16,34.209139 0,32 L0,11 C-2.705415e-16,8.790861 1.790861,7 4,7 Z M6.5,16 C7.32842712,16 8,15.3284271 8,14.5 C8,13.6715729 7.32842712,13 6.5,13 C5.67157288,13 5,13.6715729 5,14.5 C5,15.3284271 5.67157288,16 6.5,16 Z M6.5,23 C7.32842712,23 8,22.3284271 8,21.5 C8,20.6715729 7.32842712,20 6.5,20 C5.67157288,20 5,20.6715729 5,21.5 C5,22.3284271 5.67157288,23 6.5,23 Z M6.5,30 C7.32842712,30 8,29.3284271 8,28.5 C8,27.6715729 7.32842712,27 6.5,27 C5.67157288,27 5,27.6715729 5,28.5 C5,29.3284271 5.67157288,30 6.5,30 Z M12.5,13 C11.6715729,13 11,13.6715729 11,14.5 C11,15.3284271 11.6715729,16 12.5,16 L23.5,16 C24.3284271,16 25,15.3284271 25,14.5 C25,13.6715729 24.3284271,13 23.5,13 L12.5,13 Z M12.5,20 C11.6715729,20 11,20.6715729 11,21.5 C11,22.3284271 11.6715729,23 12.5,23 L23.5,23 C24.3284271,23 25,22.3284271 25,21.5 C25,20.6715729 24.3284271,20 23.5,20 L12.5,20 Z M12.5,27 C11.6715729,27 11,27.6715729 11,28.5 C11,29.3284271 11.6715729,30 12.5,30 L23.5,30 C24.3284271,30 25,29.3284271 25,28.5 C25,27.6715729 24.3284271,27 23.5,27 L12.5,27 Z" id="合并形状"></path>
            <path d="M11.137931,0 L11.137931,20.8571429 C11.137931,23.0662819 12.928792,24.8571429 15.137931,24.8571429 L37,24.8571429 L37,25 C37,27.209139 35.209139,29 33,29 L11,29 C8.790861,29 7,27.209139 7,25 L7,4 C7,1.790861 8.790861,4.05812251e-16 11,0 L11.137931,0 Z" id="合并形状" transform="translate(22.000000, 14.500000) rotate(-180.000000) translate(-22.000000, -14.500000) "></path>
        </g>
    </g>
</svg>