<?xml version="1.0" encoding="UTF-8"?>
<svg width="37px" height="35px" viewBox="0 0 37 35" version="1.1" xmlns="http://www.w3.org/2000/svg" xmlns:xlink="http://www.w3.org/1999/xlink">
    <!-- Generator: Sketch 52.5 (67469) - http://www.bohemiancoding.com/sketch -->
    <title>形状</title>
    <desc>Created with Sketch.</desc>
    <g id="页面-2" stroke="none" stroke-width="1" fill="none" fill-rule="evenodd">
        <path d="M36.8621839,14.900002 C36.7171143,14.0858983 35.940992,13.257126 35.1358557,13.0737693 L34.5338169,12.9344182 C33.1193884,12.5016964 31.8645364,11.5555758 31.0666536,10.1620649 C30.2687708,8.7612197 30.0801804,7.16968355 30.4283474,5.71016422 L30.6169379,5.13809132 C30.8563027,4.34599038 30.5444031,3.25318445 29.9133503,2.71044862 C29.9133503,2.71044862 29.3475789,2.22638693 27.7518134,1.2949349 C26.1560478,0.370817133 25.4669673,0.114117753 25.4669673,0.114117753 C24.6908449,-0.171918698 23.602823,0.0994492173 23.0370516,0.70819346 L22.6163497,1.16291807 C21.5428347,2.18971559 20.0993923,2.81312837 18.5036267,2.81312837 C16.9078612,2.81312837 15.4499118,2.18238132 14.3763968,1.14824954 L13.9702019,0.70819346 C13.411684,0.0994492173 12.3164085,-0.171918698 11.5402862,0.114117753 C11.5402862,0.114117753 10.8439522,0.370817133 9.24818663,1.2949349 C7.65242109,2.2337212 7.09390316,2.71778289 7.09390316,2.71778289 C6.46285042,3.25318445 6.15095079,4.33865611 6.39031562,5.13809132 L6.56439914,5.71749849 C6.90531268,7.17701782 6.72397569,8.7612197 5.92609292,10.1620649 C5.12821015,11.5629101 3.85885121,12.5163649 2.43716918,12.9417525 L1.85689081,13.0737693 C1.05900804,13.257126 0.275632229,14.078564 0.130562635,14.900002 C0.130562635,14.900002 0,15.6334288 0,17.4963329 C0,19.3592369 0.130562635,20.0926637 0.130562635,20.0926637 C0.275632229,20.9141017 1.05175456,21.7355398 1.85689081,21.9188965 L2.42266222,22.0509133 C3.84434425,22.4763008 5.12095668,23.4297557 5.91883944,24.8379351 C6.71672221,26.2387803 6.90531268,27.8303164 6.55714566,29.2898358 L6.39031562,29.8545744 C6.15095079,30.6466754 6.46285042,31.7394813 7.09390316,32.2822171 C7.09390316,32.2822171 7.65967457,32.7662788 9.25544011,33.6977308 C10.8512056,34.6291829 11.5402862,34.878548 11.5402862,34.878548 C12.3164085,35.1645844 13.4044305,34.8932165 13.9702019,34.2844723 L14.3691433,33.8517505 C15.4499118,32.8176187 16.9006077,32.1868716 18.5036267,32.1868716 C20.1066458,32.1868716 21.5645952,32.8249529 22.6381102,33.8590847 L23.0370516,34.2918065 C23.5955695,34.9005508 24.6908449,35.1719187 25.4669673,34.8858822 C25.4669673,34.8858822 26.1633013,34.6291829 27.7590668,33.7050651 C29.3548324,32.7736131 29.9133503,32.2895514 29.9133503,32.2895514 C30.5444031,31.7541498 30.8563027,30.6613439 30.6169379,29.8619087 L30.4428543,29.2751672 C30.1019408,27.8229822 30.2832778,26.2387803 31.0811606,24.8452694 C31.8790433,23.4444242 33.1556558,22.4836351 34.5773378,22.0582475 L35.1431092,21.9262307 C35.940992,21.742874 36.7243678,20.921436 36.8694374,20.099998 C36.8694374,20.099998 37,19.3665712 37,17.5036671 C36.9927465,15.6334288 36.8621839,14.900002 36.8621839,14.900002 Z M18.5,25 C14.3628319,25 11,21.6428923 11,17.4963109 C11,13.3571077 14.3554572,10 18.5,10 C22.6371681,10 26,13.3571077 26,17.5036891 C25.9926254,21.6428923 22.6371681,25 18.5,25 Z" id="形状" fill="#BFCBD9" fill-rule="nonzero"></path>
    </g>
</svg>