<?xml version="1.0" encoding="UTF-8"?>
<svg width="38px" height="35px" viewBox="0 0 38 35" version="1.1" xmlns="http://www.w3.org/2000/svg" xmlns:xlink="http://www.w3.org/1999/xlink">
    <!-- Generator: Sketch 52.5 (67469) - http://www.bohemiancoding.com/sketch -->
    <title>分组 7</title>
    <desc>Created with Sketch.</desc>
    <g id="页面-2" stroke="none" stroke-width="1" fill="none" fill-rule="evenodd">
        <g id="分组-7" transform="translate(19.000000, 17.500000) rotate(-90.000000) translate(-19.000000, -17.500000) translate(1.500000, -1.500000)" fill="#BFCBD9">
            <path d="M8.12332056,7.62241134 L8.12332056,4.5 C8.12332056,2.290861 9.91418156,0.5 12.1233206,0.5 L21.9383922,0.5 C24.1475312,0.5 25.9383922,2.290861 25.9383922,4.5 L25.9383922,6.43056678 C26.4720931,7.02329672 26.9440649,7.67305211 27.3448452,8.37037037 L33.7454423,19.5067798 C34.8462674,21.4221073 34.1859828,23.867182 32.2706553,24.9680071 C31.6641932,25.3165683 30.9769287,25.5 30.2774352,25.5 L4.72191293,25.5 C2.51277393,25.5 0.721912928,23.709139 0.721912928,21.5 C0.721912928,20.8005065 0.905344661,20.113242 1.25390582,19.5067798 L7.65450288,8.37037037 C7.80241466,8.11301843 7.95887524,7.86364797 8.12332056,7.62241134 Z" id="合并形状"></path>
            <rect id="矩形" x="15.5" y="27.5" width="3" height="10" rx="1.5"></rect>
            <path d="M27.4223673,27.2584151 L27.4223673,27.2584151 C28.2023688,27.2671475 28.8325538,27.8973324 28.8412862,28.677334 L28.92507,36.1611178 C28.9335539,36.9189289 28.3261043,37.5401338 27.5682932,37.5486178 C27.5580524,37.5487324 27.5478107,37.5487324 27.53757,37.5486178 L27.53757,37.5486178 C26.7575684,37.5398853 26.1273835,36.9097004 26.118651,36.1296988 L26.0348673,28.6459151 C26.0263833,27.8881039 26.6338329,27.266899 27.391644,27.2584151 C27.4018848,27.2583004 27.4121265,27.2583004 27.4223673,27.2584151 Z" id="矩形-copy-15" transform="translate(27.479969, 32.403516) rotate(-45.000000) translate(-27.479969, -32.403516) "></path>
            <path d="M5.68574085,27.2584151 L5.68574085,27.2584151 C6.44355196,27.2499311 7.06475687,27.8573807 7.07324085,28.6151918 C7.0733555,28.6254326 7.0733555,28.6356743 7.07324085,28.6459151 L6.98945706,36.1296988 C6.98072465,36.9097004 6.35053971,37.5398853 5.57053815,37.5486178 L5.57053815,37.5486178 C4.81272704,37.5571017 4.19152213,36.9496521 4.18303815,36.191841 C4.1829235,36.1816002 4.1829235,36.1713585 4.18303815,36.1611178 L4.26682193,28.677334 C4.27555434,27.8973324 4.90573928,27.2671475 5.68574085,27.2584151 Z" id="矩形-copy-14" transform="translate(5.628139, 32.403516) rotate(-315.000000) translate(-5.628139, -32.403516) "></path>
        </g>
    </g>
</svg>