<?xml version="1.0" encoding="UTF-8"?>
<svg width="37px" height="36px" viewBox="0 0 37 36" version="1.1" xmlns="http://www.w3.org/2000/svg" xmlns:xlink="http://www.w3.org/1999/xlink">
    <!-- Generator: Sketch 52.5 (67469) - http://www.bohemiancoding.com/sketch -->
    <title>合并形状 copy 2</title>
    <desc>Created with Sketch.</desc>
    <g id="页面-2" stroke="none" stroke-width="1" fill="none" fill-rule="evenodd">
        <path d="M12.8125,29.6587413 L4,29.6587413 C1.790861,29.6587413 2.705415e-16,27.8678803 0,25.6587413 L0,4 C-2.705415e-16,1.790861 1.790861,3.07034751e-15 4,2.66453526e-15 L33,0 C35.209139,-4.05812251e-16 37,1.790861 37,4 L37,25.6587413 C37,27.8678803 35.209139,29.6587413 33,29.6587413 L24.1875,29.6587413 L19.272567,35.6390788 C18.9219031,36.0657558 18.2917437,36.1273765 17.8650668,35.7767126 C17.8148224,35.7354194 17.7687262,35.6893232 17.727433,35.6390788 L12.8125,29.6587413 Z M9.5,17.7952448 C10.8807119,17.7952448 12,16.6886889 12,15.323683 C12,13.9586771 10.8807119,12.8521212 9.5,12.8521212 C8.11928813,12.8521212 7,13.9586771 7,15.323683 C7,16.6886889 8.11928813,17.7952448 9.5,17.7952448 Z M18.5,17.7952448 C19.8807119,17.7952448 21,16.6886889 21,15.323683 C21,13.9586771 19.8807119,12.8521212 18.5,12.8521212 C17.1192881,12.8521212 16,13.9586771 16,15.323683 C16,16.6886889 17.1192881,17.7952448 18.5,17.7952448 Z M27.5,17.7952448 C28.8807119,17.7952448 30,16.6886889 30,15.323683 C30,13.9586771 28.8807119,12.8521212 27.5,12.8521212 C26.1192881,12.8521212 25,13.9586771 25,15.323683 C25,16.6886889 26.1192881,17.7952448 27.5,17.7952448 Z" id="合并形状-copy-2" fill="#BFCBD9"></path>
    </g>
</svg>