<?xml version="1.0" encoding="UTF-8"?>
<svg width="44px" height="33px" viewBox="0 0 44 33" version="1.1" xmlns="http://www.w3.org/2000/svg" xmlns:xlink="http://www.w3.org/1999/xlink">
    <!-- Generator: Sketch 52.5 (67469) - http://www.bohemiancoding.com/sketch -->
    <title>合并形状</title>
    <desc>Created with Sketch.</desc>
    <g id="页面-2" stroke="none" stroke-width="1" fill="none" fill-rule="evenodd">
        <path d="M2.22044605e-16,21.8999819 C2.28224032,21.4367116 4,19.4189579 4,17 C4,14.5810421 2.28224032,12.5632884 1.55431223e-15,12.1000181 L0,4 C-2.705415e-16,1.790861 1.790861,4.05812251e-16 4,0 L40,0 C42.209139,-4.05812251e-16 44,1.790861 44,4 L44,12.1000181 C41.7177597,12.5632884 40,14.5810421 40,17 C40,19.4189579 41.7177597,21.4367116 44,21.8999819 L44,29 C44,31.209139 42.209139,33 40,33 L4,33 C1.790861,33 2.705415e-16,31.209139 0,29 L0,21.8999819 Z M14.624,8.436 L19.928,17.77 L16.08,17.77 L16.08,19.07 L20.656,19.07 L20.656,21.618 L16.08,21.618 L16.08,22.918 L20.656,22.918 L20.656,27 L22.944,27 L22.944,22.918 L27.546,22.918 L27.546,21.618 L22.944,21.618 L22.944,19.07 L27.546,19.07 L27.546,17.77 L23.672,17.77 L28.976,8.436 L26.402,8.436 L21.8,16.964 L17.198,8.436 L14.624,8.436 Z" id="合并形状" fill="#BFCBD9"></path>
    </g>
</svg>